<?xml version="1.0" encoding="utf-8"?>
<svg version="1.1" xmlns:xlink="http://www.w3.org/1999/xlink" width="25px" height="15px" xmlns="http://www.w3.org/2000/svg">
  <g transform="matrix(1 0 0 1 -181 -762 )">
    <path d="M 24.301863960597835 6.250037560096135  C 24.308020550271753 6.243502103365362  24.308020550271753 6.246769831730748  24.30802055027174 6.250037560096151  C 24.30494225543478 6.266376201923074  24.301863960597824 6.2827148437499964  24.295707370923914 6.29905348557692  C 24.295707370923914 6.302321213942306  24.295707370923914 6.302321213942306  24.292629076086953 6.3055889423076925  C 24.286472486413043 6.321927584134616  24.28031589673913 6.338266225961538  24.274159307065215 6.351337139423076  C 24.274159307065215 6.354604867788462  24.27108101222826 6.357872596153848  24.27108101222826 6.357872596153848  C 24.26184612771739 6.374211237980771  24.255689538043477 6.390549879807694  24.24337635869565 6.403620793269231  C 24.24337635869565 6.406888521634617  24.240298063858695 6.406888521634617  24.240298063858695 6.4101562500000036  C 24.231063179347824 6.42322716346154  24.221828294836953 6.436298076923077  24.20951511548913 6.45263671875  C 24.206436820652172 6.455904447115386  24.206436820652172 6.459172175480773  24.203358525815215 6.459172175480773  C 24.191045346467387 6.475510817307696  24.175653872282606 6.488581730769233  24.160262398097824 6.501652644230769  L 24.154105808423907 6.508188100961542  C 24.138714334239125 6.521259014423078  24.12332286005434 6.534329927884616  24.104853091032606 6.547400841346156  C 24.101774796195645 6.550668569711543  24.098696501358692 6.550668569711543  24.098696501358692 6.553936298076929  C 24.08022673233695 6.567007211538466  24.058678668478258 6.580078125000003  24.040208899456516 6.593149038461544  L 11.868631114130434 14.105656550480772  C 11.847083050271737 14.118727463942308  11.825534986413041 14.128530649038463  11.803986922554346 14.141601562500002  L 11.785517153532608 14.151404747596155  C 11.767047384510866 14.161207932692307  11.745499320652172 14.171011117788465  11.723951256793477 14.177546574519228  C 11.720872961956518 14.177546574519228  11.717794667119561 14.180814302884615  11.714716372282608 14.180814302884615  C 11.69316830842391 14.190617487980766  11.66854194972826 14.197152944711538  11.646993885869563 14.206956129807688  C 11.63160241168478 14.213491586538462  11.616210937499998 14.216759314903843  11.597741168478256 14.223294771634611  L 11.560801630434778 14.233097956730766  C 11.542331861413038 14.236365685096153  11.526940387228256 14.239633413461535  11.508470618206514 14.246168870192303  L 11.471531080163036 14.255972055288458  C 11.465374490489122 14.255972055288458  11.462296195652169 14.259239783653841  11.456139605978253 14.259239783653841  L 11.391495414402165 14.269042968749995  C 11.385338824728253 14.269042968749995  11.37918223505434 14.272310697115381  11.373025645380427 14.272310697115381  C 11.360712466032599 14.272310697115381  11.348399286684774 14.275578425480763  11.336086107336946 14.275578425480763  C 11.314538043478253 14.27884615384615  11.292989979619557 14.27884615384615  11.27144191576086 14.27884615384615  L 11.135996942934783 14.27884615384615  C 11.12060546875 14.27884615384615  11.105213994565217 14.27884615384615  11.086744225543477 14.275578425480763  C 11.071352751358694 14.275578425480763  11.05903957201087 14.272310697115381  11.043648097826086 14.272310697115381  C 11.028256623641305 14.272310697115381  11.012865149456522 14.269042968749995  10.997473675271738 14.265775240384608  C 10.982082201086957 14.262507512019223  10.96976902173913 14.262507512019223  10.95437754755435 14.259239783653836  C 10.938986073369566 14.255972055288455  10.920516304347826 14.252704326923068  10.905124830163043 14.249436598557686  C 10.892811650815219 14.2461688701923  10.877420176630437 14.242901141826913  10.865106997282608 14.239633413461535  C 10.84663722826087 14.236365685096148  10.825089164402172 14.229830228365381  10.806619395380435 14.223294771634611  L 10.769679857336959 14.213491586538458  C 10.763523267663045 14.210223858173071  10.75736667798913 14.210223858173071  10.751210088315217 14.206956129807688  C 10.732740319293477 14.200420673076916  10.711192255434781 14.193885216346148  10.692722486413045 14.18734975961538  C 10.68656589673913 14.184082031249993  10.680409307065219 14.184082031249993  10.677331012228262 14.180814302884608  C 10.658861243206522 14.174278846153838  10.643469769021738 14.164475661057685  10.628078294836957 14.157940204326916  C 10.618843410326086 14.15467247596153  10.612686820652174 14.151404747596143  10.603451936141303 14.148137019230761  C 10.57882557744565 14.135066105769225  10.557277513586955 14.121995192307688  10.535729449728262 14.108924278846146  L 1.8241550611413044 8.769456129807683  C 1.6302224864130428 8.651817908653838  1.513247282608696 8.432880108173071  1.513247282608696 8.197603665865374  L 1.513247282608696 4.5802283653846185  C 1.513247282608696 4.416841947115388  1.6794752038043486 4.312274639423077  1.814920176630435 4.3939678485576925  L 10.532651154891303 9.736703725961538  C 10.55419921875 9.749774639423075  10.57882557744565 9.762845552884611  10.600373641304348 9.775916466346157  C 10.609608525815215 9.779184194711538  10.61576511548913 9.782451923076925  10.624999999999998 9.785719651442308  C 10.640391474184781 9.79225510817308  10.652704653532608 9.798790564903845  10.66809612771739 9.805326021634617  C 10.671174422554346 9.805326021634617  10.674252717391303 9.808593750000004  10.674252717391303 9.808593750000004  C 10.680409307065215 9.811861478365385  10.686565896739129 9.811861478365385  10.689644191576084 9.815129206730772  C 10.708113960597826 9.821664663461544  10.726583729619563 9.828200120192308  10.74813179347826 9.834735576923082  C 10.754288383152172 9.838003305288467  10.760444972826084 9.838003305288467  10.766601562499998 9.841271033653848  C 10.769679857336955 9.841271033653848  10.77583644701087 9.844538762019235  10.778914741847824 9.844538762019235  C 10.788149626358692 9.847806490384622  10.794306216032608 9.847806490384622  10.803541100543477 9.851074218750009  C 10.822010869565215 9.857609675480777  10.84355893342391 9.860877403846159  10.86202870244565 9.867412860576932  C 10.868185292119561 9.867412860576932  10.87126358695652 9.870680588942317  10.877420176630432 9.870680588942317  C 10.886655061141303 9.873948317307699  10.892811650815215 9.873948317307699  10.902046535326084 9.873948317307699  C 10.91743800951087 9.877216045673086  10.935907778532608 9.880483774038472  10.951299252717389 9.883751502403854  C 10.957455842391301 9.883751502403854  10.963612432065215 9.88701923076924  10.972847316576084 9.88701923076924  C 10.979003906249998 9.88701923076924  10.988238790760867 9.88701923076924  10.994395380434781 9.890286959134622  C 11.009786854619563 9.893554687500009  11.025178328804346 9.893554687500009  11.040569802989129 9.896822415865396  C 11.046726392663041 9.896822415865396  11.055961277173912 9.900090144230782  11.062117866847823 9.900090144230782  L 11.083665930706518 9.900090144230782  C 11.099057404891301 9.900090144230782  11.114448879076084 9.903357872596164  11.129840353260867 9.903357872596164  L 11.265285326086955 9.903357872596164  C 11.28683338994565 9.903357872596164  11.308381453804348 9.900090144230782  11.329929517663045 9.900090144230782  C 11.339164402173916 9.900090144230782  11.348399286684783 9.900090144230782  11.354555876358697 9.896822415865396  L 11.373025645380434 9.896822415865396  C 11.394573709239129 9.893554687500009  11.43151324728261 9.88701923076924  11.45613960597826 9.88375150240386  C 11.459217900815217 9.88375150240386  11.462296195652176 9.88375150240386  11.468452785326086 9.880483774038472  L 11.474609375 9.880483774038472  C 11.48384425951087 9.877216045673086  11.496157438858697 9.877216045673086  11.505392323369565 9.873948317307699  C 11.523862092391306 9.870680588942317  11.539253566576088 9.867412860576932  11.557723335597828 9.860877403846162  L 11.594662873641306 9.851074218750012  C 11.61005434782609 9.847806490384626  11.62852411684783 9.841271033653857  11.643915591032613 9.838003305288472  C 11.64699388586957 9.838003305288472  11.650072180706527 9.834735576923089  11.65315047554348 9.834735576923089  C 11.67162024456522 9.828200120192317  11.693168308423916 9.821664663461549  11.711638077445654 9.811861478365394  C 11.714716372282611 9.811861478365394  11.717794667119568 9.808593750000007  11.720872961956522 9.808593750000007  C 11.742421025815219 9.798790564903857  11.760890794836955 9.792255108173084  11.782438858695652 9.782451923076934  L 11.800908627717392 9.772648737980779  C 11.82245669157609 9.76284555288463  11.844004755434783 9.749774639423087  11.865552819293478 9.73670372596155  L 24.03405230978261 2.2307316706730758  C 24.037130604619566 2.2274639423076894  24.043287194293477 2.2274639423076894  24.046365489130434 2.2241962139423053  C 24.064835258152172 2.214393028846153  24.080226732336957 2.201322115384612  24.09561820652174 2.191518930288459  C 24.098696501358695 2.1882512019230727  24.101774796195656 2.1882512019230727  24.101774796195656 2.1849834735576885  C 24.12024456521739 2.1719125600961497  24.135636039402176 2.1588416466346128  24.151027513586957 2.1457707331730718  L 24.157184103260875 2.1392352764422995  C 24.16026239809783 2.1359675480769154  24.163340692934785 2.132699819711529  24.16641898777174 2.132699819711529  C 24.17873216711957 2.1196289062499925  24.191045346467394 2.1098257211538356  24.20028023097826 2.0967548076922986  C 24.203358525815222 2.0934870793269122  24.203358525815222 2.090219350961528  24.20643682065218 2.090219350961528  C 24.212593410326093 2.083683894230756  24.218750000000004 2.073880709134605  24.224906589673918 2.0673452524038325  C 24.227984884510875 2.060809795673062  24.234141474184785 2.054274338942296  24.237219769021745 2.0477388822115254  C 24.237219769021745 2.044471153846139  24.2402980638587 2.044471153846139  24.2402980638587 2.041203425480755  C 24.246454653532616 2.028132512019216  24.25568953804348 2.018329326923061  24.261846127717398 2.0052584134615223  C 24.264924422554355 2.001990685096138  24.264924422554355 1.998722956730752  24.26800271739131 1.9921874999999858  C 24.26800271739131 1.9889197716345992  24.27108101222827 1.985652043269215  24.27108101222827 1.985652043269215  C 24.277237601902186 1.972581129807676  24.283394191576097 1.9595102163461393  24.28647248641305 1.9464393028845968  C 24.28647248641305 1.9431715745192122  24.289550781250007 1.9399038461538258  24.289550781250007 1.936636117788446  C 24.289550781250007 1.9333683894230598  24.289550781250007 1.9333683894230598  24.292629076086968 1.9301006610576736  L 24.30186396059783 1.8908879206730569  L 24.30186396059783 1.8843524639422866  L 24.30186396059783 1.8778170072115157  C 24.304942255434792 1.8647460937499791  24.304942255434792 1.848407451923056  24.304942255434792 1.8353365384615172  L 24.304942255434792 1.8255333533653646  L 24.31109884510871 1.1425781249999816  C 24.31109884510871 1.1589167668269047  24.30802055027175 1.1752554086538278  24.30802055027175 1.1948617788461349  L 24.30802055027175 1.2013972355769054  C 24.304942255434792 1.2177358774038285  24.30186396059783 1.2340745192307516  24.295707370923925 1.2504131610576747  C 24.295707370923925 1.2536808894230589  24.295707370923925 1.2536808894230589  24.292629076086968 1.256948617788443  C 24.28647248641305 1.2732872596153662  24.28031589673914 1.2896259014422893  24.274159307065226 1.302696814903826  C 24.274159307065226 1.3059645432692124  24.27108101222827 1.3092322716345965  24.27108101222827 1.3092322716345965  C 24.2618461277174 1.3255709134615197  24.255689538043484 1.3419095552884428  24.243376358695663 1.3549804687499796  C 24.243376358695663 1.3582481971153657  24.240298063858702 1.3582481971153657  24.240298063858702 1.3615159254807478  C 24.231063179347835 1.3745868389422868  24.221828294836968 1.3876577524038256  24.20951511548914 1.4039963942307487  C 24.206436820652183 1.4072641225961349  24.206436820652183 1.4105318509615172  24.203358525815226 1.4105318509615172  C 24.1910453464674 1.4268704927884401  24.175653872282616 1.4399414062499791  24.160262398097835 1.453012319711518  L 24.15410580842392 1.4595477764422864  C 24.138714334239136 1.4726186899038252  24.123322860054355 1.4856896033653642  24.104853091032613 1.498760516826901  C 24.101774796195656 1.5020282451922873  24.098696501358702 1.5020282451922873  24.098696501358702 1.5052959735576714  C 24.08022673233696 1.5183668870192082  24.06175696331522 1.5314378004807472  24.040208899456523 1.544508713942286  L 11.868631114130434 9.057016225961542  C 11.847083050271737 9.070087139423078  11.825534986413041 9.079890324519234  11.803986922554346 9.09296123798077  L 11.785517153532608 9.102764423076925  C 11.767047384510866 9.112567608173075  11.745499320652172 9.122370793269234  11.723951256793477 9.128906249999998  C 11.720872961956518 9.128906249999998  11.717794667119561 9.132173978365385  11.714716372282608 9.132173978365385  C 11.69316830842391 9.141977163461535  11.66854194972826 9.148512620192308  11.646993885869563 9.158315805288458  C 11.63160241168478 9.164851262019232  11.616210937499998 9.168118990384613  11.597741168478256 9.174654447115381  L 11.560801630434778 9.184457632211537  C 11.542331861413038 9.187725360576922  11.526940387228256 9.190993088942305  11.508470618206514 9.197528545673073  L 11.471531080163036 9.207331730769228  C 11.468452785326077 9.207331730769228  11.465374490489122 9.207331730769228  11.45921790081521 9.21059945913461  C 11.437669836956513 9.213867187499996  11.400730298913038 9.220402644230765  11.37918223505434 9.223670372596152  L 11.36994735054347 9.223670372596152  C 11.357634171195645 9.223670372596152  11.345320991847817 9.226938100961533  11.333007812499993 9.226938100961533  C 11.311459748641298 9.230205829326918  11.2899116847826 9.230205829326918  11.268363620923905 9.230205829326918  L 11.132918648097819 9.230205829326918  C 11.117527173913036 9.230205829326918  11.102135699728253 9.230205829326918  11.083665930706513 9.226938100961533  C 11.06827445652173 9.226938100961533  11.055961277173907 9.223670372596152  11.040569802989122 9.223670372596152  C 11.02517832880434 9.223670372596152  11.009786854619557 9.220402644230765  10.994395380434776 9.217134915865378  C 10.979003906249993 9.213867187499991  10.966690726902167 9.213867187499991  10.951299252717384 9.210599459134606  C 10.9359077785326 9.207331730769223  10.917438009510862 9.204064002403838  10.902046535326079 9.200796274038455  C 10.889733355978253 9.197528545673068  10.87434188179347 9.194260817307683  10.862028702445645 9.190993088942305  C 10.843558933423903 9.187725360576918  10.822010869565208 9.18118990384615  10.803541100543471 9.174654447115381  L 10.766601562499991 9.164851262019226  C 10.76044497282608 9.161583533653841  10.754288383152169 9.161583533653841  10.748131793478253 9.158315805288458  C 10.729662024456513 9.151780348557686  10.708113960597817 9.145244891826918  10.689644191576079 9.138709435096148  C 10.683487601902167 9.135441706730763  10.677331012228255 9.135441706730763  10.674252717391298 9.132173978365376  C 10.655782948369557 9.125638521634608  10.640391474184776 9.115835336538453  10.624999999999993 9.109299879807685  C 10.615765115489122 9.106032151442298  10.60960852581521 9.102764423076913  10.600373641304339 9.099496694711531  C 10.575747282608686 9.086425781249993  10.554199218749991 9.073354867788456  10.532651154891298 9.060283954326916  L 1.174634850543471 3.3254206730769136  C 0.9899371603260796 3.2110501802884523  0.8945100203804268 3.0607346754807603  0.897588315217384 2.9136868990384523  L 0.8945100203804268 3.495342548076911  L 0.8914317255434708 3.495342548076911  L 0.8914317255434708 8.66488882211537  L 0.8945100203804268 8.668156550480758  C 0.9037449048912972 8.808668870192292  0.9960937499999928 8.949181189903836  1.1715565557065137 9.057016225961526  L 10.529572860054339 14.791879507211526  C 10.551120923913034 14.804950420673062  10.575747282608686 14.818021334134599  10.597295346467382 14.831092247596144  C 10.606530230978253 14.834359975961526  10.612686820652165 14.837627704326913  10.621921705163034 14.840895432692294  C 10.637313179347817 14.847430889423068  10.649626358695643 14.85396634615383  10.665017832880427 14.860501802884604  C 10.668096127717384 14.860501802884604  10.671174422554339 14.863769531249991  10.671174422554339 14.863769531249991  C 10.677331012228251 14.867037259615373  10.683487601902163 14.867037259615373  10.686565896739122 14.870304987980758  C 10.70503566576086 14.876840444711531  10.723505434782599 14.883375901442296  10.745053498641294 14.889911358173068  C 10.751210088315208 14.893179086538455  10.75736667798912 14.893179086538455  10.763523267663034 14.896446814903836  C 10.766601562499991 14.896446814903836  10.772758152173905 14.899714543269223  10.775836447010859 14.899714543269223  C 10.78507133152173 14.902982271634608  10.791227921195642 14.902982271634608  10.800462805706513 14.906249999999995  C 10.818932574728253 14.912785456730763  10.840480638586946 14.916053185096146  10.858950407608686 14.922588641826918  C 10.865106997282599 14.922588641826918  10.868185292119554 14.925856370192305  10.874341881793468 14.925856370192305  C 10.883576766304337 14.929124098557686  10.889733355978251 14.929124098557686  10.89896824048912 14.929124098557686  C 10.914359714673902 14.932391826923073  10.932829483695643 14.935659555288458  10.948220957880425 14.938927283653841  C 10.954377547554337 14.938927283653841  10.960534137228251 14.942195012019228  10.96976902173912 14.942195012019228  C 10.975925611413032 14.942195012019228  10.985160495923903 14.942195012019228  10.991317085597816 14.94546274038461  C 11.006708559782599 14.948730468749996  11.02210003396738 14.948730468749996  11.037491508152163 14.951998197115381  C 11.043648097826077 14.951998197115381  11.052882982336945 14.955265925480768  11.05903957201086 14.955265925480768  L 11.080587635869554 14.955265925480768  C 11.095979110054337 14.955265925480768  11.11137058423912 14.958533653846152  11.129840353260859 14.958533653846152  L 11.265285326086955 14.958533653846152  C 11.28683338994565 14.958533653846152  11.308381453804348 14.955265925480768  11.329929517663045 14.955265925480768  C 11.339164402173916 14.955265925480768  11.348399286684783 14.955265925480768  11.354555876358697 14.951998197115381  L 11.366869055706522 14.951998197115381  C 11.373025645380434 14.951998197115381  11.379182235054346 14.951998197115381  11.385338824728262 14.948730468749996  L 11.44998301630435 14.938927283653845  C 11.456139605978263 14.938927283653845  11.462296195652176 14.935659555288458  11.46537449048913 14.935659555288458  L 11.471531080163047 14.935659555288458  C 11.480765964673914 14.932391826923073  11.493079144021742 14.932391826923073  11.502314028532611 14.929124098557686  C 11.520783797554351 14.925856370192305  11.536175271739134 14.922588641826918  11.554645040760873 14.91605318509615  L 11.591584578804353 14.906249999999998  C 11.606976052989134 14.902982271634613  11.625445822010876 14.896446814903845  11.640837296195658 14.889911358173077  C 11.643915591032616 14.889911358173077  11.646993885869572 14.88664362980769  11.650072180706527 14.88664362980769  C 11.668541949728265 14.880108173076918  11.69009001358696 14.873572716346153  11.708559782608699 14.863769531249995  C 11.711638077445658 14.863769531249995  11.714716372282613 14.860501802884611  11.717794667119568 14.860501802884611  C 11.739342730978263 14.850698617788458  11.7578125 14.844163161057688  11.779360563858699 14.834359975961535  L 11.797830332880439 14.824556790865383  C 11.819378396739136 14.814753605769228  11.840926460597828 14.801682692307688  11.862474524456525 14.788611778846152  L 24.030974014945656 7.282639723557686  C 24.034052309782613 7.279371995192304  24.040208899456523 7.279371995192304  24.043287194293477 7.276104266826918  C 24.06175696331522 7.266301081730764  24.0771484375 7.253230168269223  24.092539911684785 7.243426983173072  C 24.095618206521742 7.240159254807685  24.098696501358702 7.240159254807685  24.098696501358702 7.2368915264422995  C 24.117166270380437 7.223820612980763  24.13255774456522 7.2107496995192255  24.147949218750004 7.197678786057685  L 24.15410580842392 7.191143329326913  C 24.157184103260878 7.187875600961526  24.160262398097835 7.1846078725961435  24.163340692934785 7.1846078725961435  C 24.175653872282616 7.171536959134603  24.187967051630437 7.161733774038448  24.197201936141308 7.148662860576912  C 24.200280230978265 7.145395132211525  24.200280230978265 7.142127403846139  24.203358525815226 7.142127403846139  C 24.20951511548914 7.135591947115371  24.21567170516305 7.125788762019216  24.221828294836968 7.1192533052884475  C 24.22490658967392 7.112717848557675  24.23106317934783 7.1061823918269065  24.23414147418479 7.099646935096138  C 24.23414147418479 7.096379206730752  24.23721976902175 7.096379206730752  24.23721976902175 7.0931114783653655  C 24.243376358695663 7.080040564903829  24.25261124320653 7.070237379807675  24.258767832880444 7.057166466346133  C 24.2618461277174 7.053898737980751  24.2618461277174 7.050631009615365  24.26492442255436 7.044095552884596  C 24.26492442255436 7.04082782451921  24.26800271739131 7.037560096153828  24.26800271739131 7.037560096153828  C 24.27415930706523 7.024489182692287  24.28031589673914 7.0114182692307505  24.283394191576097 6.9983473557692095  C 24.283394191576097 6.995079627403823  24.286472486413054 6.991811899038441  24.286472486413054 6.988544170673059  C 24.286472486413054 6.985276442307673  24.286472486413054 6.985276442307673  24.289550781250014 6.982008713942286  L 24.298785665760878 6.942795973557672  L 24.298785665760878 6.936260516826899  L 24.298785665760878 6.929725060096127  C 24.301863960597835 6.91665414663459  24.301863960597835 6.900315504807667  24.301863960597835 6.88724459134613  L 24.301863960597835 6.87744140624998  L 24.304942255434796 6.197753906249979  C 24.304942255434796 6.214092548076902  24.301863960597835 6.2304311899038245  24.301863960597835 6.250037560096135  Z " fill-rule="nonzero" fill="#99beff" stroke="none" transform="matrix(1 0 0 1 181 762 )" />
  </g>
</svg>